<mxfile host="app.diagrams.net" modified="2024-02-26T12:54:45.453Z" agent="Mozilla/5.0 (Windows NT 10.0; Win64; x64) AppleWebKit/537.36 (KHTML, like Gecko) Chrome/118.0.0.0 Safari/537.36" etag="qfFVMQLupWpQYGBxvPZc" version="23.1.6" type="github">
  <diagram name="Página-1" id="6uS0WetJ5J6ZwX3IwLx4">
    <mxGraphModel dx="1434" dy="790" grid="1" gridSize="10" guides="1" tooltips="1" connect="1" arrows="1" fold="1" page="1" pageScale="1" pageWidth="827" pageHeight="1169" math="0" shadow="0">
      <root>
        <mxCell id="0" />
        <mxCell id="1" parent="0" />
        <mxCell id="vAH9-JgrMwi1qmQs-AQU-1" value="&lt;font style=&quot;vertical-align: inherit;&quot;&gt;&lt;font style=&quot;vertical-align: inherit;&quot;&gt;Ellen Kulka&amp;nbsp;&lt;br&gt;Gestora de Projetos&amp;nbsp;&lt;br&gt;&lt;/font&gt;&lt;/font&gt;" style="rounded=0;whiteSpace=wrap;html=1;fillColor=#f5f5f5;fontColor=#333333;strokeColor=#666666;" vertex="1" parent="1">
          <mxGeometry x="280" y="120" width="120" height="60" as="geometry" />
        </mxCell>
        <mxCell id="vAH9-JgrMwi1qmQs-AQU-2" value="&lt;font style=&quot;vertical-align: inherit;&quot;&gt;&lt;font style=&quot;vertical-align: inherit;&quot;&gt;Rafael Souza&amp;nbsp;&lt;br&gt;Gestor de Projetos&amp;nbsp;&lt;br&gt;&lt;/font&gt;&lt;/font&gt;" style="rounded=0;whiteSpace=wrap;html=1;fillColor=#f5f5f5;fontColor=#333333;strokeColor=#666666;" vertex="1" parent="1">
          <mxGeometry x="460" y="120" width="120" height="60" as="geometry" />
        </mxCell>
        <mxCell id="vAH9-JgrMwi1qmQs-AQU-4" value="" style="line;strokeWidth=2;html=1;" vertex="1" parent="1">
          <mxGeometry x="400" y="145" width="60" height="10" as="geometry" />
        </mxCell>
        <mxCell id="ya2Us7TS8DltyS4jlQr1-1" value="Leandro Rosa&amp;nbsp;&lt;br&gt;Gestor Industrial&amp;nbsp;&lt;br&gt;(aprovação)" style="rounded=0;whiteSpace=wrap;html=1;fillColor=#f8cecc;strokeColor=#b85450;" vertex="1" parent="1">
          <mxGeometry x="370" y="30" width="120" height="60" as="geometry" />
        </mxCell>
        <mxCell id="ya2Us7TS8DltyS4jlQr1-3" value="" style="line;strokeWidth=2;direction=south;html=1;" vertex="1" parent="1">
          <mxGeometry x="425" y="90" width="10" height="60" as="geometry" />
        </mxCell>
        <mxCell id="ya2Us7TS8DltyS4jlQr1-4" value="Iniciação&amp;nbsp;" style="rounded=0;whiteSpace=wrap;html=1;fillColor=#dae8fc;strokeColor=#6c8ebf;" vertex="1" parent="1">
          <mxGeometry x="120" y="205" width="120" height="60" as="geometry" />
        </mxCell>
        <mxCell id="ya2Us7TS8DltyS4jlQr1-5" value="Execução" style="rounded=0;whiteSpace=wrap;html=1;fillColor=#d5e8d4;strokeColor=#82b366;" vertex="1" parent="1">
          <mxGeometry x="370" y="205" width="120" height="60" as="geometry" />
        </mxCell>
        <mxCell id="ya2Us7TS8DltyS4jlQr1-6" value="Controle&amp;nbsp;" style="rounded=0;whiteSpace=wrap;html=1;fillColor=#ffe6cc;strokeColor=#d79b00;" vertex="1" parent="1">
          <mxGeometry x="620" y="205" width="120" height="60" as="geometry" />
        </mxCell>
        <mxCell id="ya2Us7TS8DltyS4jlQr1-7" value="Engenheiro de projeto&amp;nbsp;" style="rounded=0;whiteSpace=wrap;html=1;fillColor=#dae8fc;strokeColor=#6c8ebf;" vertex="1" parent="1">
          <mxGeometry x="120" y="305" width="120" height="60" as="geometry" />
        </mxCell>
        <mxCell id="ya2Us7TS8DltyS4jlQr1-8" value="Projetista de designer&amp;nbsp;" style="rounded=0;whiteSpace=wrap;html=1;fillColor=#dae8fc;strokeColor=#6c8ebf;" vertex="1" parent="1">
          <mxGeometry x="120" y="405" width="120" height="60" as="geometry" />
        </mxCell>
        <mxCell id="ya2Us7TS8DltyS4jlQr1-9" value="Viviane Antoni &lt;br&gt;(Analista pcp)&lt;br&gt;Programadora de produção&lt;br&gt;&lt;div&gt;&lt;br&gt;&lt;/div&gt;" style="rounded=0;whiteSpace=wrap;html=1;fillColor=#d5e8d4;strokeColor=#82b366;" vertex="1" parent="1">
          <mxGeometry x="365" y="305" width="130" height="70" as="geometry" />
        </mxCell>
        <mxCell id="ya2Us7TS8DltyS4jlQr1-10" value="Ailson Santos&amp;nbsp;&lt;br&gt;(gerente industrial)&lt;br&gt;Administra a produção da fabrica&amp;nbsp;" style="rounded=0;whiteSpace=wrap;html=1;fillColor=#d5e8d4;strokeColor=#82b366;" vertex="1" parent="1">
          <mxGeometry x="370" y="415" width="120" height="60" as="geometry" />
        </mxCell>
        <mxCell id="ya2Us7TS8DltyS4jlQr1-11" value="" style="line;strokeWidth=2;html=1;" vertex="1" parent="1">
          <mxGeometry x="180" y="190" width="500" height="10" as="geometry" />
        </mxCell>
        <mxCell id="ya2Us7TS8DltyS4jlQr1-12" value="" style="line;strokeWidth=2;direction=south;html=1;" vertex="1" parent="1">
          <mxGeometry x="425" y="140" width="10" height="55" as="geometry" />
        </mxCell>
        <mxCell id="ya2Us7TS8DltyS4jlQr1-13" value="" style="line;strokeWidth=2;direction=south;html=1;" vertex="1" parent="1">
          <mxGeometry x="175" y="195" width="10" height="10" as="geometry" />
        </mxCell>
        <mxCell id="ya2Us7TS8DltyS4jlQr1-15" value="" style="line;strokeWidth=2;direction=south;html=1;" vertex="1" parent="1">
          <mxGeometry x="425" y="195" width="10" height="10" as="geometry" />
        </mxCell>
        <mxCell id="ya2Us7TS8DltyS4jlQr1-16" value="" style="line;strokeWidth=2;direction=south;html=1;" vertex="1" parent="1">
          <mxGeometry x="675" y="195" width="10" height="10" as="geometry" />
        </mxCell>
        <mxCell id="ya2Us7TS8DltyS4jlQr1-17" value="" style="line;strokeWidth=2;direction=south;html=1;" vertex="1" parent="1">
          <mxGeometry x="175" y="265" width="10" height="40" as="geometry" />
        </mxCell>
        <mxCell id="ya2Us7TS8DltyS4jlQr1-18" value="" style="line;strokeWidth=2;direction=south;html=1;" vertex="1" parent="1">
          <mxGeometry x="175" y="365" width="10" height="40" as="geometry" />
        </mxCell>
        <mxCell id="ya2Us7TS8DltyS4jlQr1-19" value="" style="line;strokeWidth=2;direction=south;html=1;" vertex="1" parent="1">
          <mxGeometry x="425" y="265" width="10" height="40" as="geometry" />
        </mxCell>
        <mxCell id="ya2Us7TS8DltyS4jlQr1-20" value="" style="line;strokeWidth=2;direction=south;html=1;" vertex="1" parent="1">
          <mxGeometry x="425" y="375" width="10" height="40" as="geometry" />
        </mxCell>
      </root>
    </mxGraphModel>
  </diagram>
</mxfile>
